# xmcd
#
# Track frame offsets: 
#        151
#        22377
#        46156
#        67494
#        90877
#        111171
#        136421
#        152677
#        176983
#        197878
#        214897
#        228812
#        255008
#        270721
#        298659
#        317145
#
# Disc length: 4466 seconds
#
# Revision: 1
# Processed by: cddbd v1.5.2PL0 Copyright (c) Steve Scherf et al.
# Submitted via: ExactAudioCopy v0.99pb5
#
DISCID=ed117010
DTITLE=Zoot Sims - Zoot
DYEAR=2009
DGENRE=Jazz
TTITLE0=9.20 Special
TTITLE1=The Man I Love
TTITLE2=55th Street
TTITLE3=The Blue Room
TTITLE4=Gus's Blues
TTITLE5=That Old Feeling
TTITLE6=Bohemia After Dark
TTITLE7=Woody'n You
TTITLE8=Blinuet
TTITLE9=The Trouble With Me Is You
TTITLE10=Where You At
TTITLE11=Zonkin'
TTITLE12=Noshin'
TTITLE13=Major-Major
TTITLE14=Minor-Minor
TTITLE15=Pegasus
EXTD=YEAR: 1956
EXTT0=
EXTT1=
EXTT2=
EXTT3=
EXTT4=
EXTT5=
EXTT6=
EXTT7=
EXTT8=
EXTT9=
EXTT10=
EXTT11=
EXTT12=
EXTT13=
EXTT14=
EXTT15=
PLAYORDER=
